Coordinates
version=1
nRows=16
nColumns=22
inDegrees=yes

Units are S.I. units (second, meters, Newtons, ...)
If the header above contains a line with 'inDegrees', this indicates whether rotational values are in degrees (yes) or radians (no).

endheader
time	pelvis_tilt	pelvis_list	pelvis_rotation	pelvis_tx	pelvis_ty	pelvis_tz	hip_flexion_r	hip_adduction_r	hip_rotation_r	knee_angle_r	ankle_angle_r	subtalar_angle_r	hip_flexion_l	hip_adduction_l	hip_rotation_l	knee_angle_l	ankle_angle_l	subtalar_angle_l	lumbar_extension	lumbar_bending	lumbar_rotation
      1.91000000	      6.93603921	     -1.76922713	   -244.38475113	     -0.42242595	      0.93787582	      0.48230690	     -5.10879119	     17.40710507	     16.43564911	    -19.00351989	     13.83472316	     -6.66877540	     31.66977431	     -9.97249436	     18.47085038	    -11.07981856	      6.23799062	      6.58739077	     -0.19123178	      9.10844021	     -1.29700713
      1.92000000	      6.97198401	     -1.80534332	   -245.34173151	     -0.42607918	      0.93660979	      0.47290957	     -5.69115343	     17.31833618	     17.21815344	    -19.39445669	     13.83304409	     -6.23629200	     31.48501527	    -10.04458524	     19.47776157	    -10.18050215	      6.64874841	      7.28021878	     -0.20773481	      9.19427204	     -1.18169211
      1.93000000	      6.98360064	     -1.84354454	   -246.28935388	     -0.42974022	      0.93538051	      0.46330082	     -6.24710074	     17.20536000	     17.96925116	    -19.85448092	     13.80328082	     -5.77927528	     31.31383272	    -10.07099317	     20.54515512	     -9.64023140	      7.02112240	      7.87851571	     -0.21566169	      9.24673859	     -1.07682749
      1.94000000	      6.97423045	     -1.90687791	   -247.22590389	     -0.43340816	      0.93419497	      0.45347048	     -6.74757065	     17.06457724	     18.68713858	    -20.38534738	     13.68888327	     -5.27760280	     31.16810564	    -10.03812988	     21.65168540	     -9.44487642	      7.30881323	      8.37122801	     -0.18413880	      9.25922691	     -1.00153597
      1.95000000	      6.90943235	     -1.99923913	   -248.14670772	     -0.43713384	      0.93307124	      0.44347175	     -7.17932273	     16.85816854	     19.32100547	    -21.01422644	     13.58323820	     -4.64111810	     31.04385364	     -9.89479230	     22.78584988	     -9.60407117	      7.45982126	      8.80406738	     -0.12688266	      9.20176391	     -0.91887766
      1.96000000	      6.80148878	     -2.10769740	   -249.05076466	     -0.44092694	      0.93204002	      0.43325690	     -7.55869486	     16.60715344	     19.90018682	    -21.72562876	     13.38903477	     -3.94416174	     30.91658164	     -9.65772636	     23.92136609	    -10.06503979	      7.49308995	      9.08564453	     -0.04113539	      9.09626151	     -0.87282972
      1.97000000	      6.64165467	     -2.22756633	   -249.92846898	     -0.44478862	      0.93112639	      0.42283861	     -7.88463935	     16.30569698	     20.39363188	    -22.51734637	     13.10649340	     -3.16880345	     30.78253988	     -9.31338636	     25.04091530	    -10.80195869	      7.37006661	      9.25150163	      0.06565375	      8.93264712	     -0.85804546
      1.98000000	      6.42212385	     -2.37160891	   -250.78997904	     -0.44868349	      0.93032310	      0.41221532	     -8.12401555	     15.94483174	     20.78166638	    -23.42310930	     12.75024698	     -2.25189755	     30.65397101	     -8.85924032	     26.08057603	    -11.78297641	      7.10020219	      9.32012593	      0.20388213	      8.69466237	     -0.85612569
      1.99000000	      6.14642712	     -2.51588522	   -251.61706802	     -0.45264374	      0.92966826	      0.40139498	     -8.29834170	     15.53657780	     21.05438592	    -24.42898512	     12.28385414	     -1.20949496	     30.51404819	     -8.30523566	     27.01326827	    -12.95948186	      6.71665561	      9.33123541	      0.35428193	      8.40052736	     -0.89597055
      2.00000000	      5.82988664	     -2.64748763	   -252.41372279	     -0.45661107	      0.92918238	      0.39040157	     -8.40060596	     15.10540476	     21.21981126	    -25.55135461	     11.70199205	      0.01438342	     30.36385961	     -7.68691456	     27.78090366	    -14.28812851	      6.22130186	      9.32731884	      0.50262847	      8.06562831	     -0.96864463
      2.01000000	      5.46752784	     -2.77047493	   -253.17629764	     -0.46056423	      0.92886357	      0.37922309	     -8.41588857	     14.64608108	     21.25369792	    -26.79970725	     10.96522801	      1.39658294	     30.20346533	     -7.01674276	     28.34235742	    -15.71889120	      5.72650718	      9.34751812	      0.65455234	      7.67955531	     -1.07443670
      2.02000000	      5.08383996	     -2.86535796	   -253.89804977	     -0.46445374	      0.92870791	      0.36792255	     -8.33220810	     14.19478924	     21.14011210	    -28.20187560	     10.07981184	      2.93315377	     30.04769686	     -6.33559088	     28.64079397	    -17.23865207	      5.28263664	      9.42661294	      0.78751409	      7.27203556	     -1.22613251
      2.03000000	      4.69006939	     -2.93676781	   -254.58006251	     -0.46824076	      0.92870349	      0.35653490	     -8.12551779	     13.76213905	     20.87354371	    -29.77385644	      9.02407960	      4.58664709	     29.89343836	     -5.67763315	     28.67125204	    -18.78886790	      4.95934371	      9.59000045	      0.90485489	      6.85157376	     -1.42054713
      2.04000000	      4.29811929	     -2.98362712	   -255.22262083	     -0.47188227	      0.92883566	      0.34512517	     -7.77340060	     13.35980245	     20.43653321	    -31.53544132	      7.78821108	      6.28746690	     29.73589111	     -5.07470248	     28.44044992	    -20.32401428	      4.79969729	      9.84212293	      0.99955947	      6.42890935	     -1.65528198
      2.05000000	      3.91141311	     -3.00447833	   -255.83279787	     -0.47534486	      0.92909936	      0.33374865	     -7.25851380	     12.98522118	     19.81761598	    -33.50250395	      6.36359254	      7.96726157	     29.55103023	     -4.55048673	     27.97459081	    -21.78638655	      4.84109467	     10.16615881	      1.06256873	      6.00829417	     -1.92736290
      2.06000000	      3.53311879	     -3.01343955	   -256.41510490	     -0.47861658	      0.92946911	      0.32247824	     -6.55175566	     12.62678367	     19.00374470	    -35.67967908	      4.73985957	      9.49107046	     29.33603902	     -4.10981557	     27.32107604	    -23.13904531	      5.07986859	     10.52488702	      1.10196031	      5.59139946	     -2.22367531
